<svg width="16" height="20" viewBox="0 0 16 20" fill="none" xmlns="http://www.w3.org/2000/svg">
<g clip-path="url(#clip0)">
<path d="M11.0907 2.81867L15.8047 7.53334C15.9296 7.65836 15.9999 7.8279 15.9999 8.00467C15.9999 8.18145 15.9296 8.35099 15.8047 8.476L11.0983 13.1813C10.9726 13.3028 10.8042 13.37 10.6294 13.3685C10.4546 13.3669 10.2874 13.2968 10.1638 13.1732C10.0402 13.0496 9.97007 12.8824 9.96855 12.7076C9.96703 12.5328 10.0342 12.3644 10.1557 12.2387L13.7277 8.66667H0.666664C0.489853 8.66667 0.320283 8.59643 0.195259 8.47141C0.0702344 8.34638 -3.01996e-06 8.17682 -3.01996e-06 8C-3.01996e-06 7.82319 0.0702344 7.65362 0.195259 7.5286C0.320283 7.40358 0.489853 7.33334 0.666664 7.33334H13.72L10.148 3.76134C10.0266 3.6356 9.95936 3.4672 9.96088 3.2924C9.9624 3.11761 10.0325 2.9504 10.1561 2.82679C10.2797 2.70319 10.4469 2.63307 10.6217 2.63156C10.7965 2.63004 10.9649 2.69723 11.0907 2.81867V2.81867Z" fill="white"/>
</g>
<defs>
<clipPath id="clip0">
<rect width="16" height="20" fill="white" transform="matrix(-1 0 0 1 16 0)"/>
</clipPath>
</defs>
</svg>
