<svg width="30" height="30" viewBox="0 0 30 30" fill="none" xmlns="http://www.w3.org/2000/svg">
<g clip-path="url(#clip0)">
<path d="M25.8491 10.3653L15.349 0.141708C15.155 -0.0473173 14.8455 -0.0473173 14.6515 0.141708L4.1514 10.3653C4.05443 10.4593 3.99988 10.5883 3.99988 10.7233C3.99988 10.8583 4.0549 10.9873 4.1514 11.0813L7.00295 13.8579C7.19742 14.0479 7.50744 14.0473 7.70145 13.8569L12.5 9.1518V29.5C12.5 29.776 12.724 30 12.9999 30H17C17.276 30 17.5 29.776 17.5 29.5V9.1518L22.2985 13.8569C22.4925 14.0473 22.803 14.0469 22.9975 13.8579L25.8491 11.0813C25.9456 10.9873 26.0001 10.8583 26.0001 10.7233C26.0001 10.5883 25.9456 10.4593 25.8491 10.3653Z" fill="white"/>
</g>
<defs>
<clipPath id="clip0">
<rect width="30" height="30" fill="white"/>
</clipPath>
</defs>
</svg>
